<!DOCTYPE svg PUBLIC "-//W3C//DTD SVG 1.1//EN" "http://www.w3.org/Graphics/SVG/1.1/DTD/svg11.dtd">
<!-- Uploaded to: SVG Repo, www.svgrepo.com, Transformed by: SVG Repo Mixer Tools -->
<svg width="800px" height="800px" viewBox="-1 0 20 20" xmlns="http://www.w3.org/2000/svg" fill="#055d59" stroke="#055d59">
<g id="SVGRepo_bgCarrier" stroke-width="0"/>
<g id="SVGRepo_tracerCarrier" stroke-linecap="round" stroke-linejoin="round"/>
<g id="SVGRepo_iconCarrier"> <g id="user-3" transform="translate(-3 -2)"> <path id="secondary" fill="#055d59" d="M18.44,15.6a1,1,0,0,0-1.34-.19,9,9,0,0,1-10.2,0,1,1,0,0,0-1.34.19A7,7,0,0,0,4,20a1,1,0,0,0,1,1H19a1,1,0,0,0,1-1,7,7,0,0,0-1.56-4.4Z"/> <path id="primary" d="M20,20a1,1,0,0,1-1,1H5a1,1,0,0,1-1-1,7,7,0,0,1,1.56-4.4,1,1,0,0,1,1.34-.19,9,9,0,0,0,10.2,0,1,1,0,0,1,1.34.19A7,7,0,0,1,20,20ZM12,3a5,5,0,1,0,5,5A5,5,0,0,0,12,3Z" fill="none" stroke="#055d59" stroke-linecap="round" stroke-linejoin="round" stroke-width="2"/> </g> </g>
</svg>