<svg width="225" height="270" viewBox="0 0 225 270" fill="none" xmlns="http://www.w3.org/2000/svg">
<path fill-rule="evenodd" clip-rule="evenodd" d="M7.05596 146.425C5.04432 144.326 3.46577 141.852 2.41045 139.143C1.35513 136.434 0.843705 133.544 0.905372 130.637C0.967039 127.731 1.60059 124.865 2.76986 122.203C3.93912 119.541 5.6212 117.136 7.72005 115.124C9.81891 113.113 12.2934 111.534 15.0023 110.479C17.7113 109.423 20.6015 108.912 23.5081 108.974C26.4146 109.035 29.2806 109.669 31.9423 110.838C34.604 112.007 37.0094 113.689 39.021 115.788L79.8406 158.408C80.5112 159.108 81.0373 159.933 81.3891 160.836C81.7409 161.739 81.9114 162.702 81.8908 163.671C81.8702 164.64 81.6591 165.595 81.2693 166.482C80.8796 167.37 80.3189 168.172 79.6192 168.842C78.9196 169.513 78.0948 170.039 77.1918 170.391C76.2888 170.742 75.3254 170.913 74.3566 170.892C73.3877 170.872 72.4324 170.661 71.5452 170.271C70.6579 169.881 69.8561 169.32 69.1856 168.621L28.366 126.001C27.0117 124.588 25.1517 123.771 23.195 123.729C21.2383 123.688 19.3453 124.425 17.9323 125.779C16.5194 127.134 15.7023 128.994 15.6608 130.95C15.6193 132.907 16.3567 134.8 17.711 136.213L58.5453 178.833C59.8996 180.246 60.6371 182.139 60.5955 184.096C60.554 186.052 59.7369 187.912 58.324 189.267C56.911 190.621 55.018 191.358 53.0613 191.317C51.1046 191.275 49.2446 190.458 47.8903 189.045L7.05596 146.425Z" fill="#666666"/>
<path fill-rule="evenodd" clip-rule="evenodd" d="M18.1525 115.346C16.0814 113.259 14.4468 110.781 13.344 108.056C12.2411 105.33 11.6922 102.413 11.7293 99.4729C11.7664 96.5331 12.3886 93.6302 13.5598 90.9336C14.731 88.237 16.4276 85.8006 18.5505 83.7668C20.6735 81.733 23.1804 80.1425 25.9248 79.0881C28.6691 78.0337 31.5961 77.5365 34.5347 77.6256C37.4733 77.7147 40.3648 78.3882 43.0402 79.6069C45.7157 80.8256 48.1216 82.5651 50.1175 84.7237L90.9519 127.344C92.3061 128.757 93.0436 130.65 93.0021 132.606C92.9606 134.563 92.1435 136.423 90.7305 137.777C89.3176 139.132 87.4245 139.869 85.4679 139.828C83.5112 139.786 81.6511 138.969 80.2969 137.556L39.4625 94.9213C38.1083 93.5083 36.2482 92.6912 34.2915 92.6497C32.3348 92.6082 30.4418 93.3456 29.0289 94.6999C27.6159 96.0541 26.7988 97.9142 26.7573 99.8709C26.7158 101.828 27.4533 103.721 28.8075 105.134L69.6419 147.754C70.9961 149.167 71.7336 151.06 71.6921 153.016C71.6506 154.973 70.8334 156.833 69.4205 158.187C68.0076 159.541 66.1145 160.279 64.1578 160.237C62.2012 160.196 60.3411 159.379 58.9869 157.966L18.1525 115.346Z" fill="#666666"/>
<path fill-rule="evenodd" clip-rule="evenodd" d="M49.6747 105.576C47.5696 103.497 45.9028 101.017 44.7728 98.282C43.6427 95.5474 43.0724 92.6141 43.0954 89.6553C43.1184 86.6966 43.7344 83.7725 44.9068 81.0558C46.0793 78.3392 47.7845 75.8852 49.9216 73.8388C52.0587 71.7925 54.5844 70.1954 57.3493 69.1418C60.1142 68.0883 63.0623 67.5998 66.0193 67.7051C68.9762 67.8105 71.8821 68.5075 74.565 69.7551C77.248 71.0027 79.6536 72.7755 81.6397 74.9688L127.624 122.946C128.295 123.646 128.821 124.472 129.172 125.376C129.524 126.28 129.694 127.244 129.673 128.214C129.651 129.183 129.439 130.139 129.049 131.027C128.658 131.914 128.096 132.716 127.396 133.387C126.695 134.057 125.869 134.583 124.965 134.935C124.062 135.286 123.097 135.456 122.128 135.435C121.158 135.414 120.202 135.202 119.315 134.811C118.427 134.42 117.625 133.859 116.955 133.158L70.9847 85.1663C70.3141 84.4667 69.5123 83.906 68.6251 83.5162C67.7379 83.1265 66.7825 82.9153 65.8137 82.8947C63.857 82.8532 61.964 83.5907 60.551 84.9449C59.1381 86.2992 58.321 88.1592 58.2795 90.1159C58.238 92.0726 58.9754 93.9656 60.3297 95.3786L101.164 137.984C101.874 138.675 102.437 139.502 102.82 140.416C103.204 141.33 103.399 142.311 103.395 143.302C103.39 144.293 103.186 145.273 102.795 146.183C102.404 147.093 101.834 147.916 101.118 148.601C100.402 149.286 99.5554 149.82 98.6288 150.171C97.7022 150.522 96.7144 150.682 95.7244 150.643C94.7343 150.604 93.7623 150.366 92.8662 149.943C91.9702 149.52 91.1685 148.921 90.509 148.181L49.6747 105.576Z" fill="#666666"/>
<path fill-rule="evenodd" clip-rule="evenodd" d="M109.946 102.595C108.774 96.9365 109.724 91.0445 112.616 86.0414C115.508 81.0384 120.139 77.2739 125.627 75.4651C131.116 73.6564 137.078 73.9297 142.377 76.233C147.677 78.5364 151.944 82.7088 154.366 87.9555L165.435 112.01C165.839 112.892 166.065 113.845 166.101 114.814C166.137 115.784 165.981 116.75 165.644 117.66C165.306 118.569 164.792 119.403 164.132 120.113C163.472 120.824 162.679 121.398 161.797 121.802C160.915 122.206 159.962 122.433 158.993 122.468C158.024 122.504 157.057 122.349 156.148 122.011C155.238 121.673 154.405 121.16 153.694 120.5C152.983 119.84 152.409 119.046 152.005 118.164L140.966 94.0946C140.075 92.1185 138.483 90.5421 136.499 89.669C134.514 88.796 132.277 88.688 130.217 89.3659C128.158 90.0439 126.422 91.4597 125.344 93.3409C124.266 95.222 123.922 97.4355 124.379 99.555L130.223 127.476C130.622 129.392 130.244 131.388 129.171 133.025C128.099 134.662 126.42 135.806 124.504 136.206C122.588 136.605 120.592 136.227 118.955 135.154C117.318 134.082 116.174 132.403 115.775 130.487L109.946 102.595Z" fill="#666666"/>
<path fill-rule="evenodd" clip-rule="evenodd" d="M28.1129 200.409C28.8125 199.738 29.6373 199.212 30.5403 198.86C31.4433 198.508 32.4067 198.338 33.3756 198.358C34.3445 198.379 35.2998 198.59 36.1871 198.98C37.0743 199.37 37.8761 199.93 38.5466 200.63L74.1272 237.76C79.4105 243.265 85.7562 247.648 92.7809 250.644L93.2826 250.865C100.299 253.852 107.862 255.339 115.486 255.23C123.111 255.121 130.628 253.418 137.556 250.231L139.607 249.286C146.986 245.892 153.73 241.317 159.574 235.709L161.448 233.894C169.318 226.357 174.756 216.64 177.064 205.991C179.373 195.341 178.447 184.245 174.405 174.125L151.929 117.899C151.569 116.999 151.389 116.036 151.401 115.067C151.412 114.097 151.615 113.139 151.996 112.248C152.378 111.356 152.931 110.549 153.625 109.871C154.319 109.194 155.139 108.659 156.039 108.299C156.94 107.939 157.902 107.759 158.872 107.77C159.841 107.782 160.799 107.984 161.691 108.366C162.582 108.747 163.39 109.301 164.067 109.995C164.745 110.688 165.279 111.509 165.639 112.409L188.1 168.636C193.236 181.487 194.414 195.58 191.485 209.105C188.556 222.631 181.653 234.974 171.66 244.549L169.786 246.349C162.748 253.098 154.633 258.624 145.776 262.701L143.724 263.645C134.926 267.694 125.379 269.856 115.695 269.993C106.012 270.13 96.4066 268.239 87.4977 264.442L86.9959 264.221C78.1372 260.45 70.1349 254.923 63.4722 247.973L27.9063 210.842C27.2348 210.144 26.7074 209.32 26.3543 208.417C26.0013 207.515 25.8294 206.552 25.8486 205.583C25.8678 204.614 26.0776 203.658 26.4662 202.771C26.8547 201.883 27.4142 201.08 28.1129 200.409Z" fill="#666666"/>
<path fill-rule="evenodd" clip-rule="evenodd" d="M6.15558 188.16C2.09288 183.921 -0.119555 178.242 0.00498704 172.372C0.129529 166.502 2.58085 160.921 6.81967 156.859C11.0585 152.796 16.7376 150.584 22.6077 150.708C28.4777 150.833 34.0579 153.284 38.1206 157.523L58.5452 178.833C59.8994 180.246 60.6369 182.139 60.5954 184.096C60.5539 186.052 59.7368 187.912 58.3238 189.267C56.9109 190.621 55.0178 191.358 53.0611 191.317C51.1045 191.275 49.2444 190.458 47.8902 189.045L27.4656 167.735C26.7951 167.036 25.9933 166.475 25.106 166.085C24.2188 165.695 23.2635 165.484 22.2946 165.464C21.3258 165.443 20.3624 165.613 19.4594 165.965C18.5564 166.317 17.7316 166.843 17.032 167.514C16.3323 168.184 15.7716 168.986 15.3819 169.873C14.9921 170.761 14.7809 171.716 14.7604 172.685C14.7398 173.654 14.9103 174.617 15.2621 175.52C15.6139 176.423 16.14 177.248 16.8106 177.947L57.6597 220.567C58.3303 221.267 58.8565 222.092 59.2082 222.995C59.56 223.898 59.7305 224.861 59.7099 225.83C59.6894 226.799 59.4782 227.754 59.0884 228.642C58.6987 229.529 58.138 230.331 57.4384 231.001C56.7387 231.672 55.9139 232.198 55.0109 232.55C54.108 232.901 53.1445 233.072 52.1757 233.051C51.2068 233.031 50.2515 232.82 49.3643 232.43C48.477 232.04 47.6753 231.479 47.0047 230.78L6.15558 188.16ZM81.2277 95.7769C79.1566 93.6902 77.522 91.2119 76.4191 88.4866C75.3163 85.7614 74.7674 82.8437 74.8045 79.904C74.8415 76.9642 75.4638 74.0613 76.635 71.3647C77.8061 68.6681 79.5027 66.2317 81.6257 64.1979C83.7487 62.1641 86.2556 60.5736 88.9999 59.5192C91.7443 58.4648 94.6712 57.9676 97.6099 58.0567C100.548 58.1458 103.44 58.8193 106.115 60.038C108.791 61.2567 111.197 62.9962 113.193 65.1548L120.335 72.6222C121.045 73.3135 121.609 74.1407 121.992 75.0544C122.375 75.9681 122.57 76.9496 122.566 77.9405C122.562 78.9313 122.358 79.9111 121.967 80.8214C121.575 81.7318 121.005 82.554 120.289 83.2391C119.573 83.9242 118.727 84.4581 117.8 84.8089C116.874 85.1598 115.886 85.3205 114.896 85.2813C113.906 85.2422 112.934 85.0041 112.038 84.5811C111.142 84.1582 110.34 83.5592 109.68 82.8197L102.538 75.3671C101.183 73.9542 99.3234 73.1371 97.3667 73.0955C95.41 73.054 93.517 73.7915 92.104 75.1457C90.6911 76.5 89.874 78.36 89.8325 80.3167C89.791 82.2734 90.5284 84.1664 91.8827 85.5794L112.292 106.889C113.647 108.302 114.384 110.195 114.343 112.152C114.301 114.109 113.484 115.969 112.071 117.323C110.658 118.677 108.765 119.415 106.808 119.373C104.852 119.332 102.992 118.515 101.637 117.102L81.2277 95.7769ZM143.726 94.3454C141.742 88.8663 141.952 82.8326 144.312 77.5045C146.671 72.1764 150.998 67.966 156.389 65.7527C161.779 63.5393 167.816 63.4942 173.239 65.6268C178.662 67.7594 183.051 71.9048 185.49 77.197L196.987 102.241C197.391 103.123 197.617 104.075 197.653 105.045C197.689 106.014 197.533 106.981 197.196 107.89C196.858 108.799 196.344 109.633 195.684 110.344C195.024 111.055 194.231 111.628 193.349 112.032C192.467 112.437 191.514 112.663 190.545 112.699C189.576 112.735 188.609 112.579 187.7 112.241C186.79 111.904 185.956 111.39 185.246 110.73C184.535 110.07 183.961 109.276 183.557 108.395L172.076 83.351C171.217 81.5364 169.695 80.1206 167.823 79.3956C165.951 78.6706 163.872 78.6917 162.015 79.4546C160.158 80.2174 158.665 81.6638 157.843 83.4954C157.021 85.327 156.934 87.4041 157.598 89.2983L166.63 114.135C167.299 115.975 167.21 118.005 166.383 119.779C165.555 121.553 164.057 122.926 162.218 123.595C160.378 124.264 158.348 124.175 156.574 123.348C154.8 122.52 153.427 121.022 152.758 119.183L143.726 94.3454Z" fill="#666666"/>
<path fill-rule="evenodd" clip-rule="evenodd" d="M187.602 98.5072C189.418 97.7796 191.449 97.8031 193.248 98.5725C195.047 99.3418 196.466 100.794 197.195 102.61L219.656 158.836C224.794 171.69 225.975 185.785 223.045 199.314C220.116 212.843 213.211 225.188 203.216 234.764L201.725 236.196C194.436 243.182 186.031 248.903 176.859 253.123L175.058 253.949C170.207 256.177 165.203 258.023 160.064 259.469L143.034 264.28C142.101 264.542 141.125 264.619 140.163 264.504C139.2 264.39 138.269 264.087 137.424 263.612C136.578 263.138 135.834 262.502 135.235 261.741C134.635 260.979 134.191 260.107 133.929 259.174C133.666 258.24 133.59 257.265 133.704 256.302C133.819 255.339 134.122 254.409 134.596 253.563C135.07 252.718 135.706 251.974 136.468 251.374C137.229 250.775 138.102 250.331 139.035 250.068L156.05 245.272C160.448 244.032 164.757 242.453 168.889 240.549L170.69 239.708C178.371 236.177 185.408 231.389 191.513 225.541L193.018 224.109C200.887 216.568 206.322 206.848 208.629 196.196C210.935 185.544 210.006 174.447 205.961 164.326L183.485 108.1C183.125 107.199 182.946 106.237 182.958 105.268C182.97 104.299 183.173 103.341 183.556 102.45C183.938 101.559 184.492 100.753 185.187 100.076C185.881 99.3996 186.702 98.8664 187.602 98.5072ZM21.1065 8.64797C22.7254 7.55142 24.7132 7.14222 26.6336 7.51023C28.5539 7.87825 30.2496 8.99339 31.3483 10.6107L49.146 36.8498C50.1595 38.4688 50.5057 40.4177 50.1118 42.2867C49.7179 44.1557 48.6145 45.7991 47.0339 46.8714C45.4532 47.9436 43.5183 48.3612 41.6361 48.0362C39.7539 47.7112 38.0711 46.6691 36.9415 45.1288L19.129 18.9045C18.5838 18.1024 18.202 17.2007 18.0055 16.2509C17.809 15.3011 17.8018 14.3219 17.984 13.3693C18.1663 12.4167 18.5347 11.5094 19.0679 10.6993C19.6012 9.88915 20.3037 9.19209 21.1065 8.64797ZM139.271 8.19049C137.529 7.30381 135.506 7.14458 133.647 7.74775C131.788 8.35092 130.244 9.6672 129.354 11.4077L115.969 37.632C115.493 38.4974 115.197 39.4495 115.096 40.4317C114.995 41.4139 115.093 42.4064 115.383 43.3502C115.673 44.2941 116.149 45.1701 116.784 45.9265C117.418 46.6829 118.198 47.3042 119.078 47.7537C119.957 48.2031 120.917 48.4716 121.902 48.5431C122.887 48.6146 123.876 48.4878 124.811 48.1701C125.746 47.8524 126.607 47.3503 127.344 46.6935C128.082 46.0368 128.68 45.2387 129.103 44.3467L142.488 18.1076C143.375 16.3656 143.534 14.3429 142.931 12.4836C142.328 10.6243 141.011 9.08027 139.271 8.19049ZM81.4653 0C83.4223 0 85.2991 0.777408 86.6829 2.1612C88.0667 3.545 88.8441 5.42183 88.8441 7.37882V33.6031C88.8441 35.5601 88.0667 37.4369 86.6829 38.8207C85.2991 40.2045 83.4223 40.9819 81.4653 40.9819C79.5083 40.9819 77.6314 40.2045 76.2476 38.8207C74.8639 37.4369 74.0864 35.5601 74.0864 33.6031V7.37882C74.0864 5.42183 74.8639 3.545 76.2476 2.1612C77.6314 0.777408 79.5083 0 81.4653 0Z" fill="#666666"/>
</svg>
