<svg width="344" height="272" viewBox="0 0 344 272" fill="none" xmlns="http://www.w3.org/2000/svg">
<path fill-rule="evenodd" clip-rule="evenodd" d="M130.917 0L121.321 1.15561C121.321 1.15561 78.2723 5.86414 46.8331 31.1279H46.4646L46.0714 31.4967C39.0194 37.9878 35.948 45.9665 31.0951 57.6333C25.3747 71.6698 20.5048 86.0386 16.512 100.662C7.396 133.646 0 173.601 0 210.15V213.223L1.53571 216.297C12.9123 236.274 33.11 248.998 51.8334 257.788C70.5446 266.578 86.7249 271.238 97.9049 271.619L105.203 272L109.036 265.472L122.476 241.647C136.728 244.868 153.141 247.031 172 247.031C190.859 247.031 207.272 244.868 221.524 241.647L234.964 265.472L238.81 272L246.095 271.619C257.275 271.238 273.455 266.578 292.167 257.788C310.89 248.998 331.088 236.274 342.464 216.297L344 213.223V210.15C344 173.601 336.604 133.646 327.488 100.662C323.495 86.0386 318.625 71.6698 312.905 57.6333C308.052 45.9542 304.981 37.9878 297.929 31.509L297.548 31.1156H297.155C265.74 5.86414 222.679 1.15561 222.679 1.15561L213.083 0L209.619 8.83923C209.619 8.83923 206.068 17.8137 203.869 28.0544C193.307 26.5962 182.662 25.8242 172 25.7432C165.427 25.7432 154.063 26.1735 140.131 28.0544C137.919 17.8137 134.369 8.83923 134.369 8.83923L130.917 0ZM114.024 28.0544C114.552 29.7755 115.08 31.2631 115.559 32.6646C99.674 36.5986 82.732 42.598 67.1906 52.2486L80.238 73.0005C112.107 53.2075 157.884 50.3308 172 50.3308C186.104 50.3308 231.893 53.2075 263.762 73.0005L276.809 52.2486C261.268 42.598 244.326 36.5986 228.441 32.6523C228.92 31.2631 229.448 29.7755 229.976 28.0421C241.439 30.3534 263.332 35.6397 281.417 49.9496C281.318 49.9988 286.024 57.1046 290.25 67.2347C294.575 77.6598 299.366 91.5395 303.691 107.19C311.996 137.199 318.519 173.748 319.048 205.921C311.308 217.735 296.97 228.394 281.797 235.512C272.282 240.011 262.215 243.236 251.857 245.101L245.714 234.738C249.363 233.385 252.963 231.91 256.083 230.508C274.991 222.198 285.262 213.223 285.262 213.223L269.131 194.783C269.131 194.783 262.226 201.126 246.095 208.232C229.989 215.338 205.356 222.444 172 222.444C138.644 222.444 114.024 215.338 97.9049 208.232C81.7737 201.126 74.8691 194.783 74.8691 194.783L58.738 213.223C58.738 213.223 69.0089 222.198 87.9166 230.508C91.3235 232.037 94.7819 233.447 98.2857 234.738L92.1429 245.113C81.7796 243.241 71.7084 240.009 62.1903 235.5C47.0297 228.394 32.68 217.735 24.9646 205.921C25.4806 173.748 32.0043 137.199 40.3217 107.19C43.997 93.615 48.4811 80.2729 53.75 67.2347C57.9763 57.1046 62.6817 49.9988 62.5834 49.9496C80.668 35.6397 102.561 30.3534 114.024 28.0544ZM129 111.8C119.503 111.8 111.1 117.221 105.964 124.093C100.829 130.966 98.2857 139.412 98.2857 148.681C98.2857 157.951 100.829 166.396 105.964 173.269C111.1 180.141 119.503 185.562 129 185.562C138.497 185.562 146.9 180.141 152.036 173.269C157.171 166.396 159.714 157.951 159.714 148.681C159.714 139.412 157.171 130.966 152.036 124.093C146.9 117.221 138.497 111.8 129 111.8ZM215 111.8C205.503 111.8 197.1 117.221 191.964 124.093C186.829 130.966 184.286 139.412 184.286 148.681C184.286 157.951 186.829 166.396 191.964 173.269C197.1 180.141 205.503 185.562 215 185.562C224.497 185.562 232.9 180.141 238.036 173.269C243.171 166.396 245.714 157.951 245.714 148.681C245.714 139.412 243.171 130.966 238.036 124.093C232.9 117.221 224.497 111.8 215 111.8ZM129 136.387C129.676 136.387 130.536 136.633 132.071 138.698C133.607 140.752 135.143 144.354 135.143 148.681C135.143 153.008 133.607 156.611 132.071 158.676C130.536 160.729 129.676 160.975 129 160.975C128.324 160.975 127.464 160.729 125.929 158.664C123.897 155.734 122.824 152.246 122.857 148.681C122.857 144.354 124.393 140.752 125.929 138.686C127.464 136.633 128.324 136.387 129 136.387ZM215 136.387C215.676 136.387 216.536 136.633 218.071 138.698C219.607 140.752 221.143 144.354 221.143 148.681C221.143 153.008 219.607 156.611 218.071 158.676C216.536 160.729 215.676 160.975 215 160.975C214.324 160.975 213.464 160.729 211.929 158.664C209.897 155.734 208.824 152.246 208.857 148.681C208.857 144.354 210.393 140.752 211.929 138.686C213.464 136.633 214.324 136.387 215 136.387Z" fill="#666666"/>
</svg>
