<svg width="26" height="26" viewBox="0 0 26 26" fill="none" xmlns="http://www.w3.org/2000/svg">
<g clip-path="url(#clip0_1_168)">
<path d="M23.111 4.3335H2.88878C2.50569 4.3335 2.13829 4.48568 1.8674 4.75656C1.59652 5.02745 1.44434 5.39485 1.44434 5.77794V20.2224C1.44434 20.6055 1.59652 20.9729 1.8674 21.2438C2.13829 21.5146 2.50569 21.6668 2.88878 21.6668H23.111C23.4941 21.6668 23.8615 21.5146 24.1324 21.2438C24.4033 20.9729 24.5554 20.6055 24.5554 20.2224V5.77794C24.5554 5.39485 24.4033 5.02745 24.1324 4.75656C23.8615 4.48568 23.4941 4.3335 23.111 4.3335ZM21.9988 20.2224H4.08767L9.14322 14.9935L8.10322 13.9896L2.88878 19.3846V6.87572L11.866 15.8096C12.1366 16.0786 12.5027 16.2296 12.8843 16.2296C13.2659 16.2296 13.632 16.0786 13.9027 15.8096L23.111 6.65183V19.2907L17.7954 13.9752L16.7771 14.9935L21.9988 20.2224ZM3.83489 5.77794H21.941L12.8843 14.7841L3.83489 5.77794Z" fill="#B3ADAD"/>
</g>
<defs>
<clipPath id="clip0_1_168">
<rect width="26" height="26" fill="white"/>
</clipPath>
</defs>
</svg>
