<svg width="318" height="285" viewBox="0 0 318 285" fill="none" xmlns="http://www.w3.org/2000/svg">
<path d="M12.9626 116.234L130.005 191.501C140.438 198.185 145.656 201.526 151.295 202.824C156.277 203.971 161.471 203.971 166.455 202.824C172.094 201.526 177.311 198.185 187.745 191.501L304.788 116.234M131.2 23.5495L36.8681 80.4691C27.9727 85.8363 23.5251 88.52 20.2991 92.1479C17.4439 95.3589 15.2955 99.0925 13.9838 103.123C12.502 107.678 12.502 112.724 12.502 122.816V222.495C12.502 239.998 12.502 248.751 16.0474 255.436C19.1659 261.316 24.1421 266.098 30.2629 269.093C37.2211 272.5 46.3299 272.5 64.5477 272.5H253.213C271.431 272.5 280.541 272.5 287.499 269.093C293.619 266.098 298.596 261.316 301.714 255.436C305.259 248.751 305.259 239.998 305.259 222.495V122.816C305.259 112.724 305.259 107.678 303.777 103.123C302.465 99.0925 300.318 95.3589 297.462 92.1479C294.237 88.52 289.789 85.8363 280.894 80.4691L186.561 23.5495C176.521 17.4922 171.502 14.4636 166.117 13.283C161.353 12.239 156.408 12.239 151.645 13.283C146.259 14.4636 141.24 17.4922 131.2 23.5495Z" stroke="#666666" stroke-width="25" stroke-linecap="round" stroke-linejoin="round"/>
</svg>
