<svg width="70" height="70" viewBox="0 0 70 70" fill="none" xmlns="http://www.w3.org/2000/svg">
<path d="M32.0833 61.25V55.4167H55.4166V34.7083C55.4166 29.0208 53.4362 24.1967 49.4754 20.2358C45.5146 16.275 40.6894 14.2936 35 14.2917C29.3105 14.2897 24.4864 16.2711 20.5275 20.2358C16.5686 24.2006 14.5872 29.0247 14.5833 34.7083V52.5H11.6666C10.0625 52.5 8.6897 51.9293 7.54831 50.7879C6.40692 49.6465 5.83526 48.2728 5.83331 46.6667V40.8333C5.83331 39.8125 6.08901 38.8529 6.6004 37.9546C7.11179 37.0562 7.82831 36.3387 8.74998 35.8021L8.96873 31.9375C9.35762 28.6319 10.3182 25.5694 11.8504 22.75C13.3826 19.9306 15.3028 17.4757 17.6108 15.3854C19.9189 13.2951 22.5672 11.6667 25.5558 10.5C28.5444 9.33333 31.6925 8.75 35 8.75C38.3075 8.75 41.4429 9.33333 44.4062 10.5C47.3696 11.6667 50.0189 13.2835 52.3541 15.3504C54.6894 17.4174 56.6096 19.8596 58.1146 22.6771C59.6196 25.4946 60.5918 28.5571 61.0312 31.8646L61.25 35.6562C62.1736 36.0938 62.8911 36.75 63.4025 37.625C63.9139 38.5 64.1686 39.4236 64.1666 40.3958V47.1042C64.1666 48.0764 63.9119 49 63.4025 49.875C62.893 50.75 62.1755 51.4062 61.25 51.8437V55.4167C61.25 57.0208 60.6793 58.3946 59.5379 59.5379C58.3965 60.6812 57.0228 61.2519 55.4166 61.25H32.0833ZM26.25 40.8333C25.4236 40.8333 24.7314 40.5533 24.1733 39.9933C23.6153 39.4333 23.3353 38.7411 23.3333 37.9167C23.3314 37.0922 23.6114 36.4 24.1733 35.84C24.7353 35.28 25.4275 35 26.25 35C27.0725 35 27.7657 35.28 28.3296 35.84C28.8935 36.4 29.1725 37.0922 29.1666 37.9167C29.1608 38.7411 28.8808 39.4343 28.3266 39.9962C27.7725 40.5582 27.0803 40.8372 26.25 40.8333ZM43.75 40.8333C42.9236 40.8333 42.2314 40.5533 41.6733 39.9933C41.1153 39.4333 40.8353 38.7411 40.8333 37.9167C40.8314 37.0922 41.1114 36.4 41.6733 35.84C42.2353 35.28 42.9275 35 43.75 35C44.5725 35 45.2657 35.28 45.8296 35.84C46.3935 36.4 46.6725 37.0922 46.6666 37.9167C46.6608 38.7411 46.3808 39.4343 45.8266 39.9962C45.2725 40.5582 44.5803 40.8372 43.75 40.8333ZM17.5729 36.3125C17.2326 31.1597 18.7882 26.7361 22.2396 23.0417C25.691 19.3472 29.993 17.5 35.1458 17.5C39.4722 17.5 43.2765 18.8728 46.5587 21.6183C49.841 24.3639 51.8214 27.8775 52.5 32.1592C48.0764 32.1086 44.0057 30.9167 40.2879 28.5833C36.5701 26.25 33.7137 23.0903 31.7187 19.1042C30.941 22.9931 29.3008 26.4571 26.7983 29.4962C24.2958 32.5354 21.2207 34.8075 17.5729 36.3125Z" fill="#888888"/>
</svg>
