<svg width="223" height="270" viewBox="0 0 223 270" fill="none" xmlns="http://www.w3.org/2000/svg">
<path fill-rule="evenodd" clip-rule="evenodd" d="M49.0742 114.315C49.0742 97.8567 55.6123 82.0723 67.2502 70.4344C78.8882 58.7965 94.6725 52.2584 111.131 52.2584C127.59 52.2584 143.374 58.7965 155.012 70.4344C166.65 82.0723 173.188 97.8567 173.188 114.315C173.188 130.774 166.65 146.558 155.012 158.196C143.374 169.834 127.59 176.372 111.131 176.372C94.6725 176.372 78.8882 169.834 67.2502 158.196C55.6123 146.558 49.0742 130.774 49.0742 114.315ZM111.131 71.8553C99.87 71.8553 89.0701 76.3287 81.1073 84.2915C73.1446 92.2543 68.6711 103.054 68.6711 114.315C68.6711 125.576 73.1446 136.376 81.1073 144.339C89.0701 152.302 99.87 156.775 111.131 156.775C122.392 156.775 133.192 152.302 141.155 144.339C149.118 136.376 153.591 125.576 153.591 114.315C153.591 103.054 149.118 92.2543 141.155 84.2915C133.192 76.3287 122.392 71.8553 111.131 71.8553Z" fill="#666666"/>
<path fill-rule="evenodd" clip-rule="evenodd" d="M0.395018 99.3824C2.6281 72.2969 14.965 47.0415 34.9563 28.6307C54.9475 10.2199 81.1312 -8.27717e-05 108.309 5.02782e-10H113.952C141.13 -8.27717e-05 167.314 10.2199 187.305 28.6307C207.296 47.0415 219.633 72.2969 221.866 99.3824C224.351 129.552 215.03 159.509 195.867 182.944L133.249 259.515C130.569 262.792 127.195 265.433 123.369 267.246C119.544 269.059 115.364 270 111.131 270C106.897 270 102.717 269.059 98.8917 267.246C95.0665 265.433 91.692 262.792 89.0122 259.515L26.3936 182.944C7.22932 159.51 -2.09137 129.552 0.395018 99.3824ZM108.309 19.5969C86.0528 19.6003 64.6119 27.9717 48.2418 43.0494C31.8716 58.1271 21.7692 78.8089 19.9397 100.989C17.8702 126.098 25.6265 151.029 41.5746 170.532L104.193 247.117C105.035 248.147 106.095 248.977 107.297 249.547C108.499 250.117 109.813 250.413 111.144 250.413C112.474 250.413 113.788 250.117 114.99 249.547C116.192 248.977 117.252 248.147 118.094 247.117L180.713 170.532C196.651 151.025 204.398 126.094 202.321 100.989C200.492 78.8066 190.387 58.123 174.014 43.045C157.642 27.9669 136.197 19.597 113.939 19.5969H108.309Z" fill="#666666"/>
</svg>
