<svg width="30" height="30" viewBox="0 0 30 30" fill="none" xmlns="http://www.w3.org/2000/svg">
<path fill-rule="evenodd" clip-rule="evenodd" d="M15.6667 22.5H17.9167C23.67 22.5 28.3333 17.8367 28.3333 12.0833C28.3333 6.33 23.67 1.66667 17.9167 1.66667H12.0833C6.33 1.66667 1.66667 6.33 1.66667 12.0833C1.66667 18.8 5.49667 22.8167 9.525 25.2383C11.5467 26.4533 13.5833 27.2383 15.1225 27.7192C15.3117 27.7783 15.4942 27.8333 15.6667 27.8833V22.5ZM17.3333 30C17.3333 30 16.6967 29.8925 15.6667 29.6142C11.325 28.4375 0 24.2083 0 12.0833C0 5.41 5.41 0 12.0833 0H17.9167C24.59 0 30 5.41 30 12.0833C30 18.7567 24.59 24.1667 17.9167 24.1667H17.3333V30Z" fill="#888888"/>
<path fill-rule="evenodd" clip-rule="evenodd" d="M18.0763 5.40142C18.9346 5.97142 19.5813 6.89558 19.5813 8.13475C19.5813 9.44975 19.0513 10.4164 18.1921 11.0081C17.8529 11.2377 17.4785 11.4106 17.0838 11.5197V12.7964C17.0838 13.1279 16.9521 13.4459 16.7176 13.6803C16.4832 13.9147 16.1653 14.0464 15.8338 14.0464C15.5022 14.0464 15.1843 13.9147 14.9499 13.6803C14.7154 13.4459 14.5838 13.1279 14.5838 12.7964V10.4656C14.5837 10.1484 14.7042 9.84312 14.9208 9.61149C15.1374 9.37986 15.434 9.23923 15.7504 9.21808C16.2121 9.18725 16.5621 9.09558 16.7729 8.94975C16.8584 8.89314 16.9274 8.81494 16.9729 8.72308C17.0229 8.62308 17.0813 8.44475 17.0813 8.13392C17.0813 7.87392 16.9796 7.67392 16.6921 7.48225C16.3654 7.26558 15.8404 7.10558 15.2096 7.08558C14.5863 7.06558 13.9804 7.18725 13.5346 7.40308C13.0879 7.61975 12.9238 7.86308 12.8779 8.04225C12.8371 8.20126 12.7654 8.35067 12.6668 8.48196C12.5682 8.61324 12.4448 8.72382 12.3035 8.8074C12.1622 8.89097 12.0058 8.94589 11.8433 8.96903C11.6808 8.99217 11.5153 8.98307 11.3563 8.94225C11.1972 8.90143 11.0478 8.82969 10.9165 8.73113C10.7853 8.63257 10.6747 8.50911 10.5911 8.36781C10.5075 8.22651 10.4526 8.07014 10.4295 7.90761C10.4063 7.74508 10.4154 7.57959 10.4563 7.42058C10.7438 6.30308 11.5796 5.57308 12.4446 5.15392C13.3113 4.73308 14.3304 4.55558 15.2888 4.58642C16.2413 4.61642 17.2579 4.85642 18.0763 5.40142Z" fill="#888888"/>
<path d="M17.5003 17.4997C17.5003 17.9417 17.3247 18.3656 17.0122 18.6782C16.6996 18.9907 16.2757 19.1663 15.8337 19.1663C15.3916 19.1663 14.9677 18.9907 14.6551 18.6782C14.3426 18.3656 14.167 17.9417 14.167 17.4997C14.167 17.0576 14.3426 16.6337 14.6551 16.3212C14.9677 16.0086 15.3916 15.833 15.8337 15.833C16.2757 15.833 16.6996 16.0086 17.0122 16.3212C17.3247 16.6337 17.5003 17.0576 17.5003 17.4997Z" fill="#888888"/>
</svg>
