<svg width="270" height="270" viewBox="0 0 270 270" fill="none" xmlns="http://www.w3.org/2000/svg">
<path fill-rule="evenodd" clip-rule="evenodd" d="M164.25 84.5608V95.1013C174.419 88.7837 186.159 85.1015 203.997 85.1015C262.054 85.1015 269.486 128.497 269.486 166.301V269.409L202.358 270V171.385C202.358 154.831 196.429 151.689 185.466 151.689C175.044 151.689 168.574 154.983 168.574 171.385V270L100.568 269.409V84.5606L164.25 84.5608ZM67.5675 84.4494V269.922H0V84.4495H67.5675V84.4494ZM50.6756 101.341H16.8919V253.03H50.6756V101.341V101.341ZM147.358 101.453H117.459V252.669L151.682 252.973V171.385C151.682 139.544 172.848 134.797 185.466 134.797C200.872 134.797 219.25 141.149 219.25 171.385V252.973L252.595 252.669V166.301C252.595 119.426 239.436 101.993 203.997 101.993C182.696 101.993 173.473 108.311 164.436 115.912L162.088 117.905H147.358V101.453ZM33.7838 0C52.4156 0 67.5675 15.1521 67.5675 33.7838C67.5675 52.4156 52.4156 67.5675 33.7838 67.5675C15.1521 67.5675 0 52.4156 0 33.7838C0 15.1521 15.1521 0 33.7838 0ZM33.7838 16.8919C24.4763 16.8919 16.8919 24.4763 16.8919 33.7838C16.8919 43.0912 24.4763 50.6756 33.7838 50.6756C43.0912 50.6756 50.6756 43.0912 50.6756 33.7838C50.6756 24.4763 43.0912 16.8919 33.7838 16.8919Z" fill="#666666"/>
</svg>
