<!DOCTYPE svg PUBLIC "-//W3C//DTD SVG 1.1//EN" "http://www.w3.org/Graphics/SVG/1.1/DTD/svg11.dtd">
<!-- Uploaded to: SVG Repo, www.svgrepo.com, Transformed by: SVG Repo Mixer Tools -->
<svg version="1.1" id="_x32_" xmlns="http://www.w3.org/2000/svg" xmlns:xlink="http://www.w3.org/1999/xlink" width="800px" height="800px" viewBox="0 0 512 512" xml:space="preserve" fill="#000000">
<g id="SVGRepo_bgCarrier" stroke-width="0"/>
<g id="SVGRepo_tracerCarrier" stroke-linecap="round" stroke-linejoin="round"/>
<g id="SVGRepo_iconCarrier"> <style type="text/css">  .st0{fill:#055d59;}  </style> <g> <path class="st0" d="M135.219,315.938V111.219H58.141c-32.047,0-58.031,25.969-58.031,58.031v88.656 c0,32.047,25.984,58.031,58.031,58.031H135.219z"/> <path class="st0" d="M435.469,17.781L299.25,90.656c-25.266,13.5-53.469,20.563-82.109,20.563h-46.438v204.719h46.438 c28.641,0,56.844,7.063,82.109,20.578l136.219,72.859v17.781h35.469V0h-35.469V17.781z M435.859,369.781l-120.063-64.219 c-30.234-16.156-64.359-24.719-98.656-24.719h-11.344V146.313h11.344c34.297,0,68.422-8.563,98.656-24.719l120.063-64.219V369.781z "/> <rect x="483.234" y="172.641" class="st0" width="28.656" height="81.891"/> <path class="st0" d="M18.969,463.281V486c0,14.359,11.641,26,25.984,26h43.344c14.344,0,25.984-11.641,25.984-26v-14.25 l44.484-122.844H54.969L18.969,463.281z"/> </g> </g>
</svg>