<svg width="270" height="270" viewBox="0 0 270 270" fill="none" xmlns="http://www.w3.org/2000/svg">
<path d="M204.655 106.839C205.62 107.803 206.386 108.948 206.909 110.209C207.431 111.47 207.7 112.822 207.7 114.186C207.7 115.551 207.431 116.903 206.909 118.163C206.386 119.424 205.62 120.57 204.655 121.534L163.116 163.077C162.152 164.042 161.007 164.808 159.746 165.331C158.485 165.854 157.134 166.123 155.769 166.123C154.405 166.123 153.053 165.854 151.793 165.331C150.532 164.808 149.387 164.042 148.422 163.077L114.231 128.869L80.0394 163.077C78.0908 165.025 75.448 166.12 72.6923 166.12C69.9366 166.12 67.2938 165.025 65.3452 163.077C63.3966 161.128 62.3019 158.485 62.3019 155.729C62.3019 152.973 63.3966 150.33 65.3452 148.381L106.884 106.839C107.848 105.873 108.993 105.107 110.254 104.584C111.515 104.062 112.866 103.793 114.231 103.793C115.595 103.793 116.947 104.062 118.207 104.584C119.468 105.107 120.613 105.873 121.578 106.839L155.769 141.046L189.961 106.839C190.925 105.873 192.07 105.107 193.331 104.584C194.592 104.062 195.943 103.793 197.308 103.793C198.672 103.793 200.024 104.062 201.284 104.584C202.545 105.107 203.69 105.873 204.655 106.839ZM270 134.958C270.005 158.267 263.976 181.181 252.499 201.469C241.022 221.757 224.489 238.727 204.508 250.729C184.528 262.73 161.78 269.354 138.481 269.955C115.181 270.556 92.1227 265.114 71.55 254.158L27.3505 268.893C23.691 270.114 19.764 270.291 16.0095 269.405C12.2551 268.518 8.82156 266.604 6.09384 263.876C3.36611 261.148 1.45196 257.714 0.565929 253.959C-0.3201 250.205 -0.142992 246.277 1.0774 242.617L15.8106 198.414C6.18077 180.307 0.802173 160.244 0.0830424 139.748C-0.636089 119.251 3.32315 98.8607 11.6602 80.1233C19.9973 61.3859 32.4931 44.7942 48.1991 31.6076C63.9051 18.4211 82.4086 8.98629 102.305 4.01935C122.201 -0.94759 142.968 -1.31611 163.028 2.94176C183.088 7.19963 201.914 15.972 218.078 28.5929C234.242 41.2139 247.318 57.3518 256.315 75.7816C265.311 94.2114 269.992 114.449 270 134.958ZM249.231 134.958C249.226 117.433 245.19 100.145 237.435 84.4308C229.68 68.7163 218.415 54.9966 204.51 44.3332C190.605 33.6697 174.433 26.3484 157.246 22.9356C140.059 19.5228 122.318 20.1101 105.394 24.652C88.4702 29.1938 72.8181 37.5685 59.6486 49.1282C46.4791 60.6878 36.1452 75.1225 29.4464 91.3155C22.7475 107.508 19.8634 125.026 21.0171 142.512C22.1708 159.998 27.3313 176.984 36.0995 192.156C36.8354 193.43 37.2924 194.846 37.4401 196.309C37.5878 197.773 37.4228 199.251 36.9562 200.647L20.7692 249.199L69.3173 232.998C70.7132 232.533 72.1919 232.37 73.6555 232.52C75.119 232.67 76.534 233.129 77.8067 233.868C95.1721 243.913 114.876 249.207 134.937 249.218C154.998 249.229 174.708 243.956 192.085 233.93C209.461 223.904 223.891 209.479 233.923 192.104C243.954 174.73 249.234 155.02 249.231 134.958Z" fill="#666666"/>
</svg>
