<?xml version="1.0" encoding="utf-8"?>
<svg width="256px" height="256px" viewBox="-3 0 32 32" version="1.1" xmlns="http://www.w3.org/2000/svg" fill="#000000">
  <g id="SVGRepo_bgCarrier" stroke-width="0"/>
  <g id="SVGRepo_tracerCarrier" stroke-linecap="round" stroke-linejoin="round"/>
  <g id="SVGRepo_iconCarrier">
    <g id="icomoon-ignore"/>
    <path d="M13.114 2.887c-7.243 0-13.114 5.871-13.114 13.113s5.871 13.113 13.114 13.113c7.242 0 13.112-5.871 13.112-13.113s-5.87-13.113-13.112-13.113zM13.114 28.064c-6.653 0-12.065-5.412-12.065-12.064s5.412-12.063 12.065-12.063c6.652 0 12.063 5.412 12.063 12.063s-5.411 12.064-12.063 12.064z" fill="#055d59"/>
    <path d="M12.318 10.363l-0.742-0.742-6.379 6.379 6.379 6.379 0.742-0.742-5.113-5.113h12.726v-1.049h-12.726z" style="fill: rgb(75, 75, 75);"/>
  </g>
</svg>