<svg width="270" height="270" viewBox="0 0 270 270" fill="none" xmlns="http://www.w3.org/2000/svg">
<path d="M155.212 268.479L155.977 268.38C149.136 269.451 142.124 270 134.986 270C127.849 270 120.837 269.442 114.762 268.479L116.667 255.981C122.641 256.875 128.755 257.336 134.986 257.336C141.458 257.336 147.804 256.841 153.312 255.968L155.212 268.479ZM72.4268 240.128C82.3563 246.093 93.216 250.677 105.545 253.808L102.512 266.075L101.584 265.878C90.3421 263.034 79.6582 258.767 70.4414 253.637L57.1104 256.732L54.2393 244.42L72.3496 240.198L72.4268 240.128ZM204.762 250.559V250.549L205.347 250.216C194.015 257.147 181.575 262.458 167.426 266.004L164.393 253.735L165.238 253.556C177.227 250.522 188.515 245.706 198.263 239.712L204.762 250.559ZM22.9795 226.976L16.8857 253.105L43.0156 246.994L45.8779 259.442L19.7754 265.428L19.8652 265.409C18.9111 265.634 17.9206 265.761 16.8945 265.761C9.90093 265.761 4.2393 260.09 4.23926 253.105C4.23926 252.079 4.35624 251.08 4.57227 250.216L10.666 224.087L22.9795 226.976ZM116.67 255.968L116.667 255.981C116.437 255.947 116.206 255.914 115.977 255.878L116.67 255.968ZM134.978 25.3379H135.076C195.643 25.3379 244.743 74.4378 244.743 135.005C244.743 195.572 195.643 244.672 135.076 244.672C113.411 244.672 93.2044 238.389 76.6338 227.804L31.6377 238.353L42.1826 193.377C31.5361 176.472 25.374 156.455 25.374 134.995C25.3743 74.4463 74.4465 25.3642 134.986 25.3281L134.978 25.3379ZM243.637 215.14L243.385 215.5C235.473 226.103 226.04 235.509 215.05 243.654L207.534 233.466L207.857 233.231C217.497 226.067 226.049 217.524 233.447 207.569L243.637 215.14ZM72.4395 240.117L72.4268 240.128C72.251 240.022 72.0746 239.918 71.8994 239.812L72.4395 240.117ZM135.014 35.2832C79.9343 35.2832 35.2832 79.9343 35.2832 135.014C35.2832 154.771 41.0286 173.186 50.9395 188.68L42.124 225.742L74.3477 214.222L74.2021 214.063C91.0339 227.031 112.123 234.743 135.014 234.743C190.093 234.743 234.743 190.093 234.743 135.014C234.743 79.9344 190.093 35.2833 135.014 35.2832ZM16.3994 165.176C19.3697 176.922 24.0415 187.984 29.8291 197.543L25.6074 215.652L13.2939 212.781L16.3916 199.48C11.0827 189.755 6.93542 179.274 3.95996 167.372L16.2197 164.339L16.3994 165.176ZM266.013 167.39L266.021 167.398L265.823 168.326C262.484 181.575 257.174 194.042 250.567 204.807L239.731 198.278C245.876 188.122 250.586 176.992 253.754 164.356L266.013 167.39ZM239.731 198.278C239.626 198.453 239.522 198.629 239.415 198.803L239.721 198.271L239.731 198.278ZM14.0186 116.648C13.1241 122.599 12.6641 128.698 12.6641 134.905V134.986H12.6553V135.05C12.6553 141.494 13.1504 147.813 14.0234 153.304L1.51172 155.202L1.61133 155.968C0.549222 149.136 0 142.124 0 134.986C1.0639e-05 127.849 0.558412 120.837 1.52148 114.762L14.0186 116.648ZM268.353 114.015C269.424 120.846 269.973 127.858 269.973 134.995C269.973 142.133 269.415 149.145 268.452 155.221L255.953 153.332C256.847 147.382 257.309 141.283 257.309 135.076V134.933C257.309 128.488 256.814 122.169 255.94 116.679L268.452 114.779L268.353 114.015ZM255.953 153.332C255.919 153.56 255.886 153.787 255.851 154.015L255.94 153.33L255.953 153.332ZM14.0322 116.651L14.0186 116.648C14.0527 116.421 14.0867 116.194 14.1221 115.968L14.0322 116.651ZM30.2578 71.6934C24.1043 81.8496 19.3876 92.9803 16.2197 105.616L3.95996 102.583L4.1582 101.656C7.50653 88.425 12.8084 75.9768 19.415 65.2207L30.2578 71.6934ZM250.216 64.6357C257.146 75.9678 262.458 88.4066 266.004 102.547L253.735 105.581L253.556 104.734C250.522 92.7452 245.707 81.4579 239.712 71.71L250.558 65.2207L250.216 64.6357ZM30.2705 71.7012L30.2578 71.6934C30.3636 71.5187 30.4695 71.344 30.5762 71.1699L30.2705 71.7012ZM62.4395 36.5166L62.1152 36.751C52.4753 43.9157 43.9241 52.4667 36.5254 62.4307L26.3369 54.8428L26.5889 54.4824C34.4736 43.8794 43.8797 34.4739 54.8428 26.3281L62.4395 36.5166ZM215.481 26.5889C226.085 34.4737 235.491 43.8797 243.637 54.8428L233.447 62.4307L233.213 62.1064C226.048 52.4666 217.498 43.9153 207.534 36.5166L215.121 26.3369L215.481 26.5889ZM71.71 30.252L71.1787 30.5576C71.3527 30.4512 71.5276 30.3459 71.7021 30.2402L71.71 30.252ZM198.794 30.5576L198.263 30.252L198.27 30.2402C198.444 30.346 198.62 30.451 198.794 30.5576ZM102.592 3.95996L105.626 16.2197C92.9899 19.3876 81.8585 24.0954 71.7021 30.2402L65.2119 19.4062C75.968 12.7996 88.425 7.49774 101.656 4.14941L102.583 3.95117L102.592 3.95996ZM168.316 4.14941C181.566 7.48875 194.033 12.7996 204.798 19.4062L198.27 30.2402C188.113 24.0958 176.983 19.3875 164.348 16.2197L167.381 3.95996L167.39 3.95117L168.316 4.14941ZM153.996 14.1221L153.304 14.0322L153.306 14.0176C153.536 14.052 153.766 14.0863 153.996 14.1221ZM135.005 0C142.142 1.84174e-05 149.154 0.558404 155.229 1.52148L153.306 14.0176C147.332 13.1238 141.218 12.6641 134.986 12.6641C128.515 12.6641 122.17 13.1592 116.661 14.0322L114.779 1.52148L114.015 1.62012C120.855 0.549033 127.867 0 135.005 0Z" fill="#666666"/>
</svg>
