<svg width="309" height="270" viewBox="0 0 309 270" fill="none" xmlns="http://www.w3.org/2000/svg">
<path fill-rule="evenodd" clip-rule="evenodd" d="M66.5295 163.534C67.182 163.751 67.8529 163.909 68.534 164.005C72.8303 174.128 77.1026 184.262 81.3507 194.406C88.989 212.659 96.6881 231.459 98.3737 236.865C100.485 243.517 102.702 248.042 105.131 251.14C106.392 252.719 107.834 254.116 109.535 255.179C110.421 255.734 111.369 256.182 112.36 256.516C117.219 258.338 121.653 257.579 124.432 256.652C126.063 256.096 127.615 255.33 129.049 254.374L129.125 254.344L172.039 227.587L221.62 265.581C222.349 266.143 223.139 266.614 223.989 266.994C229.942 269.575 235.712 270.486 241.149 269.757C246.555 268.998 250.852 266.735 254.057 264.169C257.736 261.204 260.669 257.417 262.621 253.114L262.758 252.78L262.804 252.658L262.834 252.598V252.567L262.849 252.552C263.113 251.899 263.316 251.223 263.457 250.532L308.71 22.3686C308.853 21.6382 308.924 20.8956 308.922 20.1515C308.922 13.4698 306.401 7.10701 300.494 3.26505C295.422 -0.0302249 289.788 -0.182083 286.22 0.0912582C282.393 0.39497 278.84 1.33648 276.455 2.09576C275.121 2.51875 273.804 2.99495 272.507 3.52321L272.34 3.59913L18.5278 103.156L18.4974 103.171C17.6387 103.487 16.7927 103.837 15.9614 104.219C13.9487 105.124 12.0181 106.201 10.1909 107.438C6.74375 109.792 -1.19833 116.261 0.153191 126.952C1.21618 135.456 7.04746 140.695 10.6161 143.216C12.5598 144.598 14.4125 145.585 15.7792 146.238C16.3866 146.541 17.6926 147.058 18.2544 147.301L18.4063 147.346L66.5295 163.534ZM281.224 24.5553H281.193C281.063 24.6133 280.931 24.669 280.798 24.7223L26.6825 124.416C26.5517 124.469 26.4201 124.519 26.2876 124.568L26.1358 124.613C25.6716 124.796 25.2156 124.998 24.7691 125.221C25.1917 125.463 25.6278 125.681 26.075 125.874L73.7882 141.94C74.6409 142.227 75.4565 142.615 76.2179 143.094L233.799 50.8416L233.951 50.7656C234.563 50.3937 235.191 50.0491 235.834 49.733C236.927 49.1712 238.674 48.3511 240.648 47.7437C242.014 47.3185 246.069 46.1189 250.442 47.5311C252.762 48.2623 254.83 49.6311 256.408 51.4812C257.987 53.3313 259.014 55.5882 259.372 57.994C259.937 60.101 259.953 62.3179 259.417 64.4327C258.354 68.6087 255.439 71.8585 252.781 74.3489C250.503 76.4749 220.952 104.963 191.811 133.087L152.131 171.355L145.069 178.188L234.239 246.554C235.443 247.059 236.75 247.267 238.051 247.161C238.706 247.072 239.323 246.798 239.828 246.372C240.443 245.852 240.971 245.237 241.392 244.549L241.422 244.534L285.309 23.2341C283.926 23.5667 282.571 24.0032 281.254 24.5401L281.224 24.5553ZM152.738 212.766L134.941 199.129L130.628 226.539L152.738 212.766ZM118.616 172.068L136.307 154.984L175.987 116.686L190.763 102.442L91.7528 160.406L92.2843 161.651C98.5287 176.403 104.704 191.184 110.811 205.993L115.108 178.659C115.497 176.124 116.734 173.81 118.616 172.068Z" fill="#666666"/>
</svg>
