<svg width="270" height="270" viewBox="0 0 270 270" fill="none" xmlns="http://www.w3.org/2000/svg">
<path d="M232.222 10H37.7778C22.4365 10 10 22.4365 10 37.7778V232.222C10 247.564 22.4365 260 37.7778 260H232.222C247.564 260 260 247.564 260 232.222V37.7778C260 22.4365 247.564 10 232.222 10Z" stroke="#666666" stroke-width="20" stroke-linecap="round" stroke-linejoin="round"/>
<path d="M112.778 51.6667H59.9998C55.3975 51.6667 51.6665 55.3977 51.6665 60V210C51.6665 214.603 55.3975 218.333 59.9998 218.333H112.778C117.38 218.333 121.111 214.603 121.111 210V60C121.111 55.3977 117.38 51.6667 112.778 51.6667Z" stroke="#666666" stroke-width="20" stroke-linecap="round" stroke-linejoin="round"/>
<path d="M210 51.6667H157.222C152.619 51.6667 148.889 55.3977 148.889 60V154.444C148.889 159.047 152.619 162.778 157.222 162.778H210C214.603 162.778 218.333 159.047 218.333 154.444V60C218.333 55.3977 214.603 51.6667 210 51.6667Z" stroke="#666666" stroke-width="20" stroke-linecap="round" stroke-linejoin="round"/>
</svg>
