<svg width="249" height="270" viewBox="0 0 249 270" fill="none" xmlns="http://www.w3.org/2000/svg">
<path d="M73.5704 56.0176C71.1778 55.6694 68.7382 56.1509 66.6574 57.3822H66.4772C61.6497 60.2143 57.2986 63.7802 53.5911 67.9769C50.5015 71.5428 48.828 75.1473 48.3903 78.6231C48.1328 80.6828 48.313 82.7682 48.9181 84.7378L49.1498 84.8666C52.6256 95.0751 57.157 104.897 62.6925 114.14C69.8301 127.123 78.6135 139.13 88.8252 149.864L89.1342 150.301L89.6233 150.662L89.9194 151.009L90.2799 151.318C101.051 161.561 113.086 170.386 126.093 177.58C140.962 185.677 149.986 189.5 155.406 191.097V191.174C156.989 191.663 158.431 191.882 159.886 191.882C164.501 191.541 168.87 189.665 172.295 186.552C176.479 182.845 180.019 178.481 182.774 173.628V173.538C185.362 168.646 184.486 164.037 180.753 160.909C173.254 154.357 165.146 148.537 156.539 143.53C150.771 140.402 144.914 142.294 142.545 145.461L137.486 151.846C134.886 155.013 130.174 154.575 130.174 154.575L130.045 154.653C94.8885 145.68 85.5039 110.085 85.5039 110.085C85.5039 110.085 85.0662 105.245 88.3231 102.773L94.6568 97.6755C97.6949 95.2038 99.8061 89.3593 96.5492 83.5921C91.575 74.9769 85.767 66.8707 79.2089 59.3904C77.7785 57.6299 75.7726 56.4309 73.5446 56.0047L73.5704 56.0176ZM132.98 40.5439C131.273 40.5439 129.636 41.2221 128.429 42.4292C127.222 43.6363 126.544 45.2735 126.544 46.9806C126.544 48.6877 127.222 50.3249 128.429 51.532C129.636 52.7391 131.273 53.4172 132.98 53.4172C149.252 53.4172 162.769 58.7339 173.467 68.9295C178.964 74.5036 183.251 81.1076 186.057 88.3424C188.876 95.59 190.164 103.327 189.829 111.077C189.757 112.784 190.366 114.449 191.523 115.707C192.679 116.965 194.288 117.712 195.995 117.784C197.702 117.855 199.368 117.246 200.626 116.089C201.883 114.933 202.63 113.324 202.702 111.617C203.101 102.084 201.519 92.5723 198.055 83.6822C194.576 74.7499 189.3 66.6267 182.555 59.8152L182.427 59.6865C169.154 47.0063 152.368 40.5439 132.98 40.5439Z" fill="#666666"/>
<path d="M132.529 61.7077C130.822 61.7077 129.185 62.3858 127.978 63.5929C126.771 64.8 126.093 66.4372 126.093 68.1443C126.093 69.8514 126.771 71.4886 127.978 72.6957C129.185 73.9028 130.822 74.581 132.529 74.581H132.748C144.489 75.4177 153.037 79.3312 159.023 85.7549C165.163 92.3718 168.343 100.598 168.098 110.768C168.059 112.475 168.699 114.128 169.879 115.362C171.058 116.597 172.68 117.313 174.387 117.352C176.094 117.392 177.747 116.751 178.982 115.572C180.216 114.392 180.932 112.771 180.971 111.064C181.28 97.7142 176.981 86.1926 168.459 77.0011V76.9754C159.743 67.6294 147.784 62.6861 133.392 61.7206L133.173 61.6948L132.529 61.7077Z" fill="#666666"/>
<path d="M132.284 83.2706C131.422 83.1946 130.554 83.2929 129.732 83.5597C128.909 83.8266 128.149 84.2564 127.496 84.8236C126.843 85.3908 126.312 86.0837 125.933 86.8609C125.554 87.6381 125.335 88.4838 125.29 89.3474C125.245 90.2109 125.374 91.0747 125.671 91.8872C125.967 92.6996 126.424 93.444 127.014 94.076C127.604 94.7079 128.316 95.2144 129.106 95.5653C129.897 95.9162 130.75 96.1042 131.614 96.1181C136.995 96.4013 140.432 98.0233 142.595 100.199C144.771 102.387 146.393 105.902 146.689 111.399C146.705 112.262 146.895 113.114 147.247 113.903C147.599 114.692 148.106 115.402 148.739 115.99C149.371 116.579 150.116 117.034 150.928 117.329C151.74 117.624 152.603 117.752 153.466 117.707C154.328 117.661 155.173 117.442 155.949 117.063C156.726 116.683 157.418 116.152 157.984 115.499C158.551 114.847 158.98 114.088 159.247 113.266C159.513 112.444 159.612 111.577 159.536 110.716C159.124 102.992 156.704 96.1696 151.748 91.149C146.766 86.1284 139.982 83.6825 132.284 83.2706Z" fill="#666666"/>
<path fill-rule="evenodd" clip-rule="evenodd" d="M62.008 6.86753C102.972 -2.28917 145.452 -2.28917 186.415 6.86753L190.779 7.83302C202.754 10.51 213.752 16.4546 222.551 25.0062C231.351 33.5579 237.607 44.3817 240.625 56.2751C251.022 97.2493 251.022 140.172 240.625 181.146C237.607 193.039 231.351 203.863 222.551 212.415C213.752 220.966 202.754 226.911 190.779 229.588L186.402 230.553C160.746 236.291 134.42 238.452 108.172 236.977L74.0188 267.538C72.7312 268.691 71.1578 269.477 69.4628 269.814C67.7678 270.152 66.0133 270.028 64.3825 269.456C62.7517 268.884 61.3043 267.884 60.1915 266.562C59.0786 265.24 58.3412 263.643 58.056 261.938L52.4046 228.185C41.5677 224.813 31.7766 218.718 23.9672 210.482C16.1577 202.247 10.5909 192.146 7.79875 181.146C-2.59958 140.172 -2.59958 97.2492 7.79875 56.2751C10.8165 44.3817 17.0726 33.5579 25.872 25.0062C34.6713 16.4546 45.6693 10.51 57.644 7.83302L62.008 6.86753ZM182.206 25.7011C144.014 17.1636 104.409 17.1636 66.2176 25.7011L61.8407 26.6795C53.3536 28.5803 45.5594 32.7963 39.3237 38.8593C33.088 44.9223 28.6549 52.595 26.5165 61.0253C16.9093 98.882 16.9093 138.539 26.5165 176.396C28.6559 184.828 33.091 192.501 39.3291 198.564C45.5672 204.628 53.3641 208.843 61.8536 210.741L63.0122 210.999C64.8864 211.418 66.5931 212.387 67.9139 213.781C69.2348 215.175 70.1098 216.932 70.4272 218.826L74.2119 241.457L98.3106 219.894C99.273 219.031 100.399 218.369 101.622 217.949C102.845 217.529 104.14 217.359 105.43 217.448C131.164 219.274 157.027 217.344 182.206 211.72L186.57 210.741C195.059 208.843 202.856 204.628 209.094 198.564C215.332 192.501 219.767 184.828 221.907 176.396C231.51 138.548 231.51 98.8856 221.907 61.0253C219.767 52.5933 215.332 44.9195 209.094 38.8564C202.856 32.7932 195.059 28.5782 186.57 26.6795L182.206 25.7011Z" fill="#666666"/>
</svg>
