<svg width="277" height="270" viewBox="0 0 277 270" fill="none" xmlns="http://www.w3.org/2000/svg">
<path fill-rule="evenodd" clip-rule="evenodd" d="M32.147 135.004C32.147 74.647 81.0757 25.7183 141.432 25.7183C201.789 25.7183 250.718 74.647 250.718 135.004C250.718 195.36 201.789 244.289 141.432 244.289C119.933 244.289 99.92 238.095 83.0349 227.396C79.8925 225.406 76.0419 224.874 72.4774 225.937L35.4599 236.985L49.3975 204.372C51.0449 200.517 50.7097 196.102 48.4993 192.541C38.1343 175.838 32.147 156.14 32.147 135.004ZM141.432 0.00402832C66.8742 0.00402832 6.43274 60.4455 6.43274 135.004C6.43274 158.636 12.516 180.882 23.2065 200.224L1.03854 252.093C-0.92117 256.68 -0.0525181 261.984 3.26732 265.705C6.58715 269.427 11.7594 270.893 16.538 269.466L74.3876 252.203C94.1495 263.53 117.051 270.003 141.432 270.003C215.991 270.003 276.432 209.562 276.432 135.004C276.432 60.4455 215.991 0.00402832 141.432 0.00402832ZM170.907 163.063L154.01 174.965C146.097 170.457 137.347 164.165 128.571 155.389C119.448 146.265 112.684 136.846 107.697 128.206L118.435 119.092C123.043 115.181 124.304 108.587 121.465 103.25L107.783 77.536C105.941 74.0735 102.619 71.6413 98.7614 70.9308C94.904 70.2205 90.9334 71.3096 87.9783 73.8886L83.9218 77.4289C74.1667 85.9428 68.3973 99.9334 73.179 114.099C78.1363 128.785 88.7158 151.898 110.389 173.571C133.706 196.889 157.392 206.071 171.243 209.638C182.403 212.51 192.963 208.66 200.405 202.596L208.01 196.399C211.263 193.749 213.018 189.677 212.712 185.492C212.405 181.307 210.075 177.535 206.47 175.387L184.892 162.53C180.533 159.934 175.056 160.142 170.907 163.063Z" fill="#666666" stroke="#666666" stroke-width="0.008"/>
</svg>
