<svg width="380" height="276" viewBox="0 0 380 276" fill="none" xmlns="http://www.w3.org/2000/svg">
<path d="M380 136.811C380 135.876 380 134.814 379.958 133.583C379.915 130.142 379.83 126.277 379.746 122.157C379.406 110.307 378.812 98.4986 377.879 87.3703C376.607 72.0369 374.741 59.2521 372.196 49.6528C369.511 39.6352 364.247 30.4988 356.932 23.157C349.616 15.8152 340.504 10.525 330.507 7.81532C318.504 4.58725 295.009 2.59095 261.929 1.35919C246.194 0.764542 229.357 0.382269 212.52 0.169896C206.625 0.0849466 201.154 0.0424746 196.234 0H183.766C178.846 0.0424746 173.375 0.0849466 167.48 0.169896C150.643 0.382269 133.806 0.764542 118.071 1.35919C84.9911 2.63342 61.4531 4.62973 49.4933 7.81532C39.4929 10.5184 30.3775 15.8063 23.0606 23.1492C15.7437 30.492 10.4822 39.6319 7.80357 49.6528C5.21652 59.2521 3.39286 72.0369 2.12054 87.3703C1.1875 98.4986 0.593749 110.307 0.254464 122.157C0.127231 126.277 0.0848208 130.142 0.0424101 133.583C0.0424101 134.814 0 135.876 0 136.811V139.189C0 140.124 -6.47768e-07 141.186 0.0424101 142.417C0.0848208 145.858 0.169642 149.723 0.254464 153.843C0.593749 165.693 1.1875 177.501 2.12054 188.63C3.39286 203.963 5.25893 216.748 7.80357 226.347C13.2321 246.693 29.1786 262.748 49.4933 268.185C61.4531 271.413 84.9911 273.409 118.071 274.641C133.806 275.235 150.643 275.618 167.48 275.83C173.375 275.915 178.846 275.958 183.766 276H196.234C201.154 275.958 206.625 275.915 212.52 275.83C229.357 275.618 246.194 275.235 261.929 274.641C295.009 273.367 318.547 271.37 330.507 268.185C350.821 262.748 366.768 246.735 372.196 226.347C374.783 216.748 376.607 203.963 377.879 188.63C378.812 177.501 379.406 165.693 379.746 153.843C379.873 149.723 379.915 145.858 379.958 142.417C379.958 141.186 380 140.124 380 139.189V136.811ZM349.464 139.019C349.464 139.911 349.464 140.888 349.422 142.035C349.379 145.348 349.295 149.001 349.21 152.951C348.913 164.249 348.319 175.548 347.429 186.039C346.283 199.716 344.672 210.929 342.679 218.447C340.049 228.259 332.33 236.031 322.576 238.622C313.67 241.001 291.234 242.912 260.741 244.059C245.304 244.654 228.679 245.036 212.096 245.248C206.286 245.333 200.9 245.376 196.065 245.376H183.935L167.904 245.248C151.321 245.036 134.739 244.654 119.259 244.059C88.7656 242.87 66.2879 241.001 57.4241 238.622C47.6696 235.989 39.9509 228.259 37.3214 218.447C35.3281 210.929 33.7165 199.716 32.5714 186.039C31.6808 175.548 31.1295 164.249 30.7902 152.951C30.6629 149.001 30.6205 145.306 30.5781 142.035C30.5781 140.888 30.5357 139.869 30.5357 139.019V136.981C30.5357 136.089 30.5357 135.112 30.5781 133.965C30.6205 130.652 30.7054 126.999 30.7902 123.049C31.0871 111.751 31.6808 100.452 32.5714 89.9612C33.7165 76.2844 35.3281 65.0711 37.3214 57.5531C39.9509 47.7415 47.6696 39.9686 57.4241 37.3777C66.3304 34.9991 88.7656 33.0877 119.259 31.9409C134.696 31.3462 151.321 30.964 167.904 30.7516C173.714 30.6667 179.1 30.6242 183.935 30.6242H196.065L212.096 30.7516C228.679 30.964 245.261 31.3462 260.741 31.9409C291.234 33.1302 313.712 34.9991 322.576 37.3777C332.33 40.0111 340.049 47.7415 342.679 57.5531C344.672 65.0711 346.283 76.2844 347.429 89.9612C348.319 100.452 348.871 111.751 349.21 123.049C349.337 126.999 349.379 130.694 349.422 133.965C349.422 135.112 349.464 136.131 349.464 136.981V139.019ZM152.254 194.916L250.647 137.575L152.254 81.084V194.916Z" fill="#666666"/>
</svg>
