<svg width="43" height="43" viewBox="0 0 43 43" fill="none" xmlns="http://www.w3.org/2000/svg">
<path d="M41.4291 26.825C38.4171 38.1907 26.8632 44.9357 15.6226 41.8902C4.38197 38.8448 -2.28871 27.1622 0.723203 15.7965C3.73512 4.43074 15.2891 -2.31419 26.5297 0.731254C37.7703 3.77669 44.441 15.4593 41.4291 26.825Z" fill="#0D5D59"/>
<path fill-rule="evenodd" clip-rule="evenodd" d="M24.6591 22.8667C25.8337 21.3386 26.6537 19.4556 27.119 17.2175L30.5885 24.7383C28.3749 28.9378 24.8905 33.0634 20.1355 37.115L14.4603 34.7222C17.0293 32.9389 19.7425 30.0564 22.5998 26.0745L17.1746 24.9429C15.8152 26.9509 13.9398 28.8792 11.5484 30.7277L5.97409 28.4737C8.2578 26.9244 10.1332 25.1825 11.6002 23.2481C8.6791 22.1904 6.79016 20.7329 5.93334 18.8756C5.09671 17.0088 5.04521 15.219 5.77884 13.5062C6.53266 11.7838 7.72707 10.5371 9.36208 9.76594C11.0173 8.98527 12.8823 8.92573 14.957 9.58732C17.0224 10.2285 18.6779 11.6594 19.9235 13.8801C21.1691 16.1007 20.9594 18.7095 19.2945 21.7066L24.6591 22.8667ZM11.821 18.3726C12.2353 19.2706 12.8858 19.9081 13.7724 20.2852C14.7509 18.7302 15.3237 17.2548 15.4908 15.8589C15.6781 14.4535 15.3829 13.5738 14.6052 13.2199C13.8477 12.8565 13.0907 13.4 12.3343 14.8502C11.5684 16.28 11.3973 17.4541 11.821 18.3726Z" fill="white"/>
<path d="M22.733 13.5206L28.5205 10.7909L36.8637 28.8763L31.0762 31.6059L22.733 13.5206ZM19.6991 6.94415L25.4867 4.21447L27.7621 9.14683L21.9745 11.8765L19.6991 6.94415Z" fill="white"/>
</svg>
