<svg width="354" height="106" viewBox="0 0 354 106" fill="none" xmlns="http://www.w3.org/2000/svg">
<path d="M138.272 29.5542V36.9184H116.423V46.271H134.631C139.268 46.4919 141.696 48.9221 141.914 53.5616V62.6564C141.696 67.3696 139.244 69.8611 134.558 70.1311H109.14V62.7669H134.631V53.6352H116.423C111.762 53.2916 109.334 50.8246 109.14 46.2342V36.8816C109.334 32.2176 111.762 29.7751 116.423 29.5542H138.272Z" fill="#0D5D59"/>
<path d="M182.146 51.7205V36.9184H163.938V51.7205H182.146ZM163.938 59.0848V70.1311H156.655V29.5542H182.073C186.759 29.7751 189.211 32.2544 189.429 36.9921V51.6469C189.211 56.3109 186.783 58.7902 182.146 59.0848L189.502 70.1311H181.491L174.135 59.0848H163.938Z" fill="#0D5D59"/>
<path d="M204.171 29.7015H211.454V70.1311H204.171V29.7015Z" fill="#0D5D59"/>
<path d="M226.195 29.6278H233.478V48.0384H251.686V29.6278H258.969V48.1121C258.799 52.7515 256.359 55.1817 251.65 55.4027H246.224V70.1311H238.977V55.4027H233.551C228.793 55.1817 226.341 52.7393 226.195 48.0752V29.6278Z" fill="#0D5D59"/>
<path d="M299.201 62.7669V36.9184H280.993V62.7669H299.201ZM273.71 36.8816C273.905 32.1685 276.332 29.726 280.993 29.5542H299.165C303.778 29.726 306.218 32.1685 306.485 36.8816V62.7669C306.363 67.5291 303.935 69.9839 299.201 70.1311H280.993C276.235 69.9839 273.807 67.5291 273.71 62.7669V36.8816Z" fill="#0D5D59"/>
<path d="M321.226 36.9552C321.396 32.193 323.823 29.726 328.509 29.5542H346.79C351.475 29.726 353.879 32.193 354 36.9552V40.6005H346.717V36.9184H328.509V62.7669H346.717V53.6352H337.686V46.271H354V62.7669C353.757 67.4064 351.354 69.8611 346.79 70.1311H328.509C323.872 69.8857 321.444 67.4432 321.226 62.8037V36.9552Z" fill="#0D5D59"/>
<path d="M89.4261 57.9027C82.9248 82.4361 57.9852 96.9953 33.7219 90.4216C9.45864 83.8479 -4.94026 58.6306 1.56106 34.0973C8.06239 9.56392 33.002 -4.99525 57.2653 1.57844C81.5286 8.15213 95.9275 33.3694 89.4261 57.9027Z" fill="#0D5D59"/>
<path fill-rule="evenodd" clip-rule="evenodd" d="M53.2275 49.3586C55.7631 46.0603 57.533 41.9956 58.5373 37.1645L66.0264 53.3985C61.2482 62.4633 53.7272 71.3685 43.4632 80.1141L31.213 74.949C36.7583 71.0999 42.6148 64.8778 48.7825 56.2828L37.072 53.8403C34.1378 58.1745 30.0897 62.3367 24.9277 66.3269L12.8953 61.4615C17.8248 58.1173 21.8728 54.3574 25.0394 50.1818C18.7342 47.8988 14.6568 44.7528 12.8073 40.7437C11.0014 36.7141 10.8903 32.8507 12.4738 29.1536C14.101 25.4358 16.6792 22.7447 20.2084 21.0801C23.7812 19.395 27.8068 19.2665 32.2853 20.6946C36.7434 22.0786 40.3169 25.1673 43.0056 29.9606C45.6943 34.754 45.2417 40.3852 41.6478 46.8544L53.2275 49.3586ZM25.5161 39.6579C26.4103 41.5963 27.8144 42.9725 29.7283 43.7863C31.8404 40.4299 33.0768 37.2451 33.4375 34.232C33.8418 31.1984 33.2045 29.2996 31.5259 28.5357C29.8908 27.7513 28.2568 28.9243 26.624 32.0547C24.9708 35.141 24.6015 37.6754 25.5161 39.6579Z" fill="white"/>
<path d="M49.07 29.1848L61.5626 23.2927L79.5716 62.3305L67.079 68.2226L49.07 29.1848ZM42.5213 14.9892L55.0139 9.09709L59.9255 19.7438L47.4329 25.6359L42.5213 14.9892Z" fill="white"/>
<path d="M189.07 97L188.036 96.956C187.948 96.956 187.846 96.9633 187.728 96.978C187.611 96.9927 187.479 97 187.332 97C186.907 97 186.482 96.912 186.056 96.736C184.868 96.1053 184.084 95.196 183.702 94.008C183.541 93.4947 183.46 92.9593 183.46 92.402C183.46 91.6393 183.607 90.818 183.9 89.938C185 86.6087 186.804 84.152 189.312 82.568L189.422 82.502C189.833 82.2233 190.2 82.084 190.522 82.084C190.816 82.084 191.072 82.3407 191.292 82.854C191.454 83.25 191.534 83.6313 191.534 83.998C191.534 84.6727 191.248 85.2667 190.676 85.78C189.87 86.4107 189.122 87.122 188.432 87.914C187.758 88.6913 187.186 89.6153 186.716 90.686C186.467 91.214 186.342 91.654 186.342 92.006C186.342 92.6953 186.79 93.0913 187.684 93.194C188.388 93.3113 189.085 93.37 189.774 93.37C190.522 93.37 191.263 93.304 191.996 93.172C192.906 92.996 193.822 92.8567 194.746 92.754C194.878 92.7247 195.018 92.6587 195.164 92.556C195.311 92.4387 195.458 92.38 195.604 92.38C195.736 92.38 195.854 92.4973 195.956 92.732C195.986 92.82 196 92.908 196 92.996C196 93.0987 195.971 93.216 195.912 93.348C195.854 93.4653 195.766 93.6047 195.648 93.766C195.531 93.9127 195.436 94.074 195.362 94.25C195.201 94.6167 194.996 94.8807 194.746 95.042C194.512 95.1887 194.262 95.306 193.998 95.394C193.749 95.4673 193.514 95.57 193.294 95.702C192.884 95.9073 192.473 96.01 192.062 96.01C191.828 96.01 191.608 96.032 191.402 96.076C191.197 96.12 191.006 96.2227 190.83 96.384C190.464 96.7067 190.097 96.8973 189.73 96.956C189.525 96.9853 189.305 97 189.07 97Z" fill="#0D5D59"/>
<path d="M207.258 94.118C207.61 94.0887 207.991 93.9347 208.402 93.656C208.827 93.3627 209.187 93.0327 209.48 92.666C209.788 92.2847 209.949 91.94 209.964 91.632L209.854 90.796C209.766 90.1507 209.634 89.5347 209.458 88.948C209.458 88.8747 209.392 88.6987 209.26 88.42C209.143 88.2147 208.981 88.112 208.776 88.112C208.615 88.112 208.424 88.1927 208.204 88.354C207.588 88.8087 207.053 89.5127 206.598 90.466C206.246 91.2287 206.07 91.918 206.07 92.534C206.07 93.59 206.466 94.118 207.258 94.118ZM207.258 97H207.126C206.437 97 205.769 96.802 205.124 96.406C204.493 95.9953 204.068 95.4453 203.848 94.756C203.525 93.656 203.364 92.6367 203.364 91.698C203.364 90.9647 203.518 90.07 203.826 89.014C204.149 87.958 205.131 86.7553 206.774 85.406C207.287 84.9807 207.793 84.768 208.292 84.768C208.805 84.768 209.304 84.988 209.788 85.428C211.548 87.232 212.487 89.1387 212.604 91.148C212.531 92.7173 211.966 94.052 210.91 95.152C209.869 96.252 208.651 96.868 207.258 97Z" fill="#0D5D59"/>
<path d="M222.319 97L222.099 96.978C221.351 96.7433 220.977 96.032 220.977 94.844C220.977 94.3307 221.013 93.5753 221.087 92.578L221.109 91.874C221.109 91.0527 221.028 90.2533 220.867 89.476C220.72 88.684 220.632 87.8993 220.603 87.122C220.617 85.8607 221.065 85.164 221.945 85.032L222.165 85.01C222.913 85.01 223.345 85.5453 223.463 86.616C223.507 87.2907 223.668 87.628 223.947 87.628C224.137 87.628 224.387 87.496 224.695 87.232C225.795 86.2493 226.719 85.758 227.467 85.758C227.599 85.758 227.899 85.8167 228.369 85.934C228.838 86.0513 229.491 86.9093 230.327 88.508C231.251 90.136 231.713 91.6687 231.713 93.106C231.713 93.9713 231.639 94.6387 231.493 95.108C231.375 95.46 231.126 95.6653 230.745 95.724C229.879 95.724 229.366 95.1667 229.205 94.052C228.999 92.952 228.633 91.9473 228.105 91.038L228.017 90.884C227.679 90.1213 227.32 89.74 226.939 89.74C226.587 89.74 226.22 90.0627 225.839 90.708C225.003 92.0867 224.328 93.5753 223.815 95.174L223.727 95.372C223.36 96.4573 222.891 97 222.319 97Z" fill="#0D5D59"/>
<path d="M241.686 97H241.466C240.908 97 240.395 96.8533 239.926 96.56C239.456 96.1933 239.222 95.768 239.222 95.284C239.222 95.0053 239.31 94.844 239.486 94.8C239.676 94.7413 239.867 94.712 240.058 94.712H240.388C241.532 94.536 242.654 94.2867 243.754 93.964L244.986 93.634C244.942 93.502 244.92 93.3773 244.92 93.26L244.194 93.084C243.636 92.9813 243.094 92.8493 242.566 92.688C241.202 92.1747 240.52 91.3753 240.52 90.29C240.52 89.85 240.637 89.3513 240.872 88.794C241.326 87.8847 242.067 87.122 243.094 86.506C244.135 85.89 245.169 85.582 246.196 85.582C246.885 85.582 247.34 85.868 247.56 86.44C247.618 86.6453 247.648 86.836 247.648 87.012C247.648 87.5253 247.398 87.9433 246.9 88.266C245.946 88.8233 244.942 89.366 243.886 89.894C244.458 90.378 245.074 90.7007 245.734 90.862C246.174 90.994 246.584 91.1773 246.966 91.412C247.494 91.72 247.919 92.0573 248.242 92.424C248.506 92.7467 248.638 93.1647 248.638 93.678L248.616 93.986C248.528 94.6167 248.3 95.1007 247.934 95.438C247.567 95.7607 247.09 96.01 246.504 96.186C244.92 96.67 243.314 96.9413 241.686 97Z" fill="#0D5D59"/>
<path d="M260.298 96.978C259.477 96.978 258.802 96.5893 258.274 95.812C257.834 95.1667 257.519 94.4847 257.328 93.766C257.137 93.0473 256.991 92.314 256.888 91.566C256.756 90.8033 256.595 90.048 256.404 89.3C256.243 88.8747 256.162 88.4493 256.162 88.024C256.177 87.9067 256.184 87.782 256.184 87.65V87.452C256.184 87.188 256.235 86.924 256.338 86.66C256.47 86.3373 256.881 86.176 257.57 86.176C257.966 86.176 258.303 86.2567 258.582 86.418C258.861 86.5793 259.022 86.9827 259.066 87.628C259.169 89.1827 259.374 90.7227 259.682 92.248L259.726 92.512C259.873 93.48 260.225 93.964 260.782 93.964C261.105 93.964 261.493 93.81 261.948 93.502C264.324 92.05 265.534 89.9307 265.578 87.144V86.814C265.578 86.418 265.629 86.066 265.732 85.758C265.835 85.4353 266.157 85.2593 266.7 85.23C267.257 85.2447 267.617 85.4427 267.778 85.824C267.91 86.132 267.976 86.4913 267.976 86.902V87.276C267.976 87.364 267.983 87.452 267.998 87.54C268.013 87.6133 268.02 87.6793 268.02 87.738C268.02 89.7327 267.338 91.6247 265.974 93.414C264.625 95.1887 262.982 96.3473 261.046 96.89C260.782 96.9487 260.533 96.978 260.298 96.978Z" fill="#0D5D59"/>
<path d="M278.291 97C278.042 97 277.829 96.89 277.653 96.67C277.492 96.4353 277.352 96.1273 277.235 95.746C276.78 94.4847 276.509 93.1867 276.421 91.852L276.333 91.17C276.142 89.4393 275.988 87.7087 275.871 85.978C275.739 84.5553 275.673 83.7267 275.673 83.492C275.673 82.0693 276.186 81.358 277.213 81.358C277.697 81.358 278.056 81.512 278.291 81.82C278.54 82.1133 278.68 82.4947 278.709 82.964C278.738 83.5067 278.753 84.0273 278.753 84.526L278.731 86.44C278.819 87.5253 278.87 88.5813 278.885 89.608C278.9 91.3093 279.054 92.9667 279.347 94.58C279.362 94.712 279.369 94.932 279.369 95.24L279.391 95.614C279.391 95.8487 279.347 96.1053 279.259 96.384C279.186 96.648 278.958 96.8387 278.577 96.956C278.474 96.9853 278.379 97 278.291 97Z" fill="#0D5D59"/>
<path d="M297.111 97C296.891 97 296.671 96.9707 296.451 96.912L295.725 96.934C294.273 96.934 293.122 96.5527 292.271 95.79C291.362 94.9687 290.907 93.8393 290.907 92.402V91.918C290.907 91.346 290.753 91.06 290.445 91.06L290.203 91.104C290.174 91.104 289.917 91.1847 289.433 91.346L289.257 91.412C288.935 91.5587 288.619 91.632 288.311 91.632C288.033 91.632 287.761 91.4707 287.497 91.148C287.248 90.8107 287.123 90.4807 287.123 90.158C287.123 89.7913 287.233 89.3513 287.453 88.838C287.571 88.574 287.725 88.4127 287.915 88.354C288.121 88.2807 288.341 88.244 288.575 88.244L288.905 88.2C289.609 88.112 290.108 88.0167 290.401 87.914C290.709 87.7967 290.893 87.584 290.951 87.276C291.025 86.968 291.061 86.4693 291.061 85.78C291.061 85.6333 291.054 85.494 291.039 85.362C291.025 85.2153 291.017 85.0833 291.017 84.966C291.017 84.5553 291.083 84.1447 291.215 83.734C291.347 83.3233 291.773 83.1107 292.491 83.096C293.313 83.14 293.789 83.448 293.921 84.02C293.995 84.328 294.031 84.658 294.031 85.01C294.031 85.2887 294.009 85.5747 293.965 85.868L293.943 86.33C293.943 87.2393 294.361 87.694 295.197 87.694C295.344 87.694 295.505 87.6793 295.681 87.65C295.989 87.6207 296.29 87.606 296.583 87.606C297.287 87.606 297.984 87.6793 298.673 87.826C298.908 87.8553 299.135 87.8847 299.355 87.914C299.59 87.9433 299.803 88.002 299.993 88.09C300.184 88.178 300.279 88.3907 300.279 88.728C300.279 89.1533 300.059 89.5127 299.619 89.806C299.209 90.026 298.798 90.158 298.387 90.202C298.109 90.2167 297.823 90.224 297.529 90.224L296.605 90.202C296.107 90.202 295.615 90.268 295.131 90.4C294.955 90.444 294.765 90.466 294.559 90.466C294.295 90.466 294.053 90.5173 293.833 90.62C293.613 90.7227 293.503 91.082 293.503 91.698C293.503 92.094 293.569 92.49 293.701 92.886C293.833 93.282 294.193 93.612 294.779 93.876C295.747 94.2427 296.73 94.426 297.727 94.426C298.299 94.426 298.871 94.3673 299.443 94.25C299.546 94.2353 299.656 94.206 299.773 94.162C300.008 94.0887 300.243 94.052 300.477 94.052C300.507 94.052 300.595 94.0593 300.741 94.074C300.903 94.074 301.02 94.272 301.093 94.668L301.115 94.866C301.115 95.1593 300.998 95.4307 300.763 95.68C300.529 95.9293 300.235 96.1053 299.883 96.208C299.531 96.296 299.194 96.406 298.871 96.538C298.167 96.846 297.581 97 297.111 97Z" fill="#0D5D59"/>
<path d="M310.381 84.064H310.249C309.692 84.064 309.267 83.822 308.973 83.338C308.739 82.9567 308.621 82.5973 308.621 82.26C308.621 81.9813 308.709 81.7173 308.885 81.468C309.399 80.8373 310.007 80.324 310.711 79.928C310.975 79.796 311.217 79.73 311.437 79.73C312.112 79.73 312.464 80.258 312.493 81.314C312.479 81.622 312.347 81.9813 312.097 82.392C311.863 82.8027 311.584 83.1693 311.261 83.492C310.939 83.8147 310.645 84.0053 310.381 84.064ZM310.799 99.046L310.623 99.024C310.037 98.936 309.677 98.562 309.545 97.902C309.472 97.3153 309.435 96.7507 309.435 96.208C309.435 95.7827 309.457 95.3647 309.501 94.954C309.531 94.6753 309.545 94.4113 309.545 94.162C309.487 93.5753 309.443 92.996 309.413 92.424C309.369 90.9427 309.142 89.52 308.731 88.156C308.614 87.8627 308.555 87.562 308.555 87.254C308.555 87.1513 308.563 86.9827 308.577 86.748C308.607 86.4987 308.812 86.22 309.193 85.912C309.575 85.6627 309.919 85.538 310.227 85.538C310.755 85.538 311.173 85.912 311.481 86.66C311.833 87.6867 312.046 88.7353 312.119 89.806C312.178 90.686 312.207 91.5733 312.207 92.468V94.206C312.207 95.5113 311.98 96.7873 311.525 98.034L311.437 98.32C311.379 98.54 311.305 98.716 311.217 98.848C311.129 98.98 310.99 99.046 310.799 99.046Z" fill="#0D5D59"/>
<path d="M322.097 97L321.877 96.978C321.129 96.7433 320.755 96.032 320.755 94.844C320.755 94.3307 320.791 93.5753 320.865 92.578L320.887 91.874C320.887 91.0527 320.806 90.2533 320.645 89.476C320.498 88.684 320.41 87.8993 320.381 87.122C320.395 85.8607 320.843 85.164 321.723 85.032L321.943 85.01C322.691 85.01 323.123 85.5453 323.241 86.616C323.285 87.2907 323.446 87.628 323.725 87.628C323.915 87.628 324.165 87.496 324.473 87.232C325.573 86.2493 326.497 85.758 327.245 85.758C327.377 85.758 327.677 85.8167 328.147 85.934C328.616 86.0513 329.269 86.9093 330.105 88.508C331.029 90.136 331.491 91.6687 331.491 93.106C331.491 93.9713 331.417 94.6387 331.271 95.108C331.153 95.46 330.904 95.6653 330.523 95.724C329.657 95.724 329.144 95.1667 328.983 94.052C328.777 92.952 328.411 91.9473 327.883 91.038L327.795 90.884C327.457 90.1213 327.098 89.74 326.717 89.74C326.365 89.74 325.998 90.0627 325.617 90.708C324.781 92.0867 324.106 93.5753 323.593 95.174L323.505 95.372C323.138 96.4573 322.669 97 322.097 97Z" fill="#0D5D59"/>
<path d="M344.103 105.932C343.722 105.932 343.319 105.895 342.893 105.822C341.896 105.617 341.126 105.089 340.583 104.238C340.114 103.475 339.879 102.61 339.879 101.642V101.312C340.026 99.64 340.539 98.254 341.419 97.154C342.299 96.0687 343.414 95.1447 344.763 94.382L344.983 94.272C345.321 94.0813 345.533 93.9127 345.621 93.766C345.797 93.4287 345.885 93.106 345.885 92.798C345.885 92.6807 345.849 92.5633 345.775 92.446C345.702 92.314 345.621 92.248 345.533 92.248C345.519 92.248 345.467 92.2627 345.379 92.292C345.306 92.3067 345.203 92.358 345.071 92.446C344.954 92.5193 344.851 92.578 344.763 92.622C343.663 93.062 342.527 93.3627 341.353 93.524C341.177 93.5533 341.016 93.568 340.869 93.568C340.239 93.568 339.74 93.282 339.373 92.71C339.139 92.2847 339.021 91.8813 339.021 91.5C339.021 91.104 339.139 90.73 339.373 90.378C341.852 87.2247 344.807 85.6187 348.239 85.56C348.899 85.5747 349.303 85.7947 349.449 86.22C349.581 86.5867 349.647 87.0047 349.647 87.474V87.738L349.713 88.508C349.713 88.7573 349.596 89.1313 349.361 89.63C349.171 89.9967 349.046 90.3853 348.987 90.796C348.958 90.9573 348.892 91.126 348.789 91.302C348.701 91.478 348.657 91.632 348.657 91.764C348.657 91.8813 348.701 91.9913 348.789 92.094C348.892 92.182 348.995 92.226 349.097 92.226C349.229 92.226 349.405 92.16 349.625 92.028C349.772 91.9547 349.911 91.896 350.043 91.852L350.791 91.654C351.51 91.478 351.906 91.39 351.979 91.39C352.229 91.39 352.449 91.5 352.639 91.72C352.713 91.8373 352.749 91.94 352.749 92.028C352.749 92.0573 352.735 92.1087 352.705 92.182C352.691 92.2553 352.647 92.336 352.573 92.424C352.515 92.512 352.471 92.6 352.441 92.688C352.236 93.0987 351.957 93.414 351.605 93.634C351.268 93.8393 350.909 94.0153 350.527 94.162C350.234 94.2793 349.955 94.404 349.691 94.536C349.178 94.8293 348.841 95.1667 348.679 95.548C348.577 95.812 348.525 96.1127 348.525 96.45C348.525 96.7287 348.569 97.2713 348.657 98.078C348.789 98.9287 348.855 99.7867 348.855 100.652C348.855 102.969 348.049 104.546 346.435 105.382C345.746 105.749 344.969 105.932 344.103 105.932ZM342.827 90.224C343.003 90.224 343.297 90.1507 343.707 90.004C344.133 89.8427 344.558 89.652 344.983 89.432C345.702 89.0653 346.061 88.816 346.061 88.684C346.061 88.596 345.966 88.552 345.775 88.552C345.555 88.552 345.291 88.6253 344.983 88.772C344.675 88.9187 344.353 89.1093 344.015 89.344C343.678 89.564 343.399 89.762 343.179 89.938L342.827 90.224ZM343.795 103.226L344.037 103.204C344.903 103.101 345.497 102.815 345.819 102.346C346.142 101.891 346.303 101.195 346.303 100.256V100.014L345.995 97.572C345.966 97.1467 345.856 96.934 345.665 96.934C345.563 96.934 345.431 96.9853 345.269 97.088C343.612 98.1147 342.549 99.5667 342.079 101.444L342.057 101.708C342.057 102.104 342.226 102.456 342.563 102.764C342.915 103.072 343.326 103.226 343.795 103.226Z" fill="#0D5D59"/>
</svg>
