<?xml version="1.0" encoding="utf-8"?>
<svg height="800px" width="800px" version="1.1" id="Layer_1" xmlns="http://www.w3.org/2000/svg" viewBox="0 0 512 512">
  <path style="paint-order: stroke markers; fill: rgb(255, 255, 255);" d="M256,503.201C229.904,490.976,54.664,404.488,54.664,288V72.864 c5.824,0.472,14.192,0.936,24.44,0.936C121.6,73.809,199.759,65.513,256,11.344c56.24,54.168,134.4,62.464,176.896,62.464 c10.24,0,18.616-0.472,24.44-0.936V288C457.336,404.488,282.096,490.976,256,503.201z"/>
  <path style="fill: rgb(5, 93, 89);" d="M256,22.256c57.72,51.496,134.56,59.552,176.896,59.552c6.176,0,11.704-0.168,16.44-0.408v206.6 c0,107.592-159.056,189.872-193.336,206.344C221.729,477.873,62.664,395.592,62.664,288V81.4c4.736,0.24,10.264,0.408,16.44,0.408 C121.44,81.808,198.304,73.752,256,22.256 M256,0C201.808,56.944,122.936,65.808,79.104,65.808 C68.263,65.899,57.428,65.295,46.664,64v224C46.664,420,256,512,256,512s209.336-92,209.336-224V64 c-10.764,1.296-21.599,1.9-32.44,1.808C389.065,65.808,310.192,56.952,256,0z"/>
  <path d="M256,106.264c-31.763,0-57.513,25.75-57.513,57.512s25.749,57.512,57.512,57.512s57.512-25.749,57.512-57.512l0,0 C313.513,132.013,287.763,106.264,256,106.264z" style="fill: rgb(5, 93, 89);"/>
  <path d="M193.16,242.608c0,0-58.288,0.8-58.288,54.4v66.056h113.848L193.16,242.608z" style="fill: rgb(5, 93, 89);"/>
  <path d="M318.84,242.608l-55.56,120.456h113.848v-66.056C377.128,243.408,318.84,242.608,318.84,242.608z" style="fill: rgb(5, 93, 89);"/>
  <polygon style="fill: rgb(5, 93, 89);" points="256,242.608 215.976,242.608 256,331.2 296.025,242.608 "/>
</svg>